<svg id="visual" viewBox="0 0 960 540" width="960" height="540" xmlns="http://www.w3.org/2000/svg" xmlns:xlink="http://www.w3.org/1999/xlink" version="1.1">
  <rect x="0" y="0" width="960" height="540" fill="#001220"></rect>
  <path d="M0 337L22.8 345C45.7 353 91.3 369 137 369.3C182.7 369.7 228.3 354.3 274 345.7C319.7 337 365.3 335 411.2 337C457 339 503 345 548.8 356C594.7 367 640.3 383 686 392.5C731.7 402 777.3 405 823 403C868.7 401 914.3 394 937.2 390.5L960 387L960 541L937.2 541C914.3 541 868.7 541 823 541C777.3 541 731.7 541 686 541C640.3 541 594.7 541 548.8 541C503 541 457 541 411.2 541C365.3 541 319.7 541 274 541C228.3 541 182.7 541 137 541C91.3 541 45.7 541 22.8 541L0 541Z" fill="#ffc0cb"></path>
  <path d="M0 434L22.8 433.5C45.7 433 91.3 432 137 433.7C182.7 435.3 228.3 439.7 274 437.8C319.7 436 365.3 428 411.2 419.2C457 410.3 503 400.7 548.8 395.2C594.7 389.7 640.3 388.3 686 393C731.7 397.7 777.3 408.3 823 414.8C868.7 421.3 914.3 423.7 937.2 424.8L960 426L960 541L937.2 541C914.3 541 868.7 541 823 541C777.3 541 731.7 541 686 541C640.3 541 594.7 541 548.8 541C503 541 457 541 411.2 541C365.3 541 319.7 541 274 541C228.3 541 182.7 541 137 541C91.3 541 45.7 541 22.8 541L0 541Z" fill="#ef92a7"></path>
  <path d="M0 414L22.8 422C45.7 430 91.3 446 137 456.2C182.7 466.3 228.3 470.7 274 467.7C319.7 464.7 365.3 454.3 411.2 445.2C457 436 503 428 548.8 422.5C594.7 417 640.3 414 686 419.2C731.7 424.3 777.3 437.7 823 440.8C868.7 444 914.3 437 937.2 433.5L960 430L960 541L937.2 541C914.3 541 868.7 541 823 541C777.3 541 731.7 541 686 541C640.3 541 594.7 541 548.8 541C503 541 457 541 411.2 541C365.3 541 319.7 541 274 541C228.3 541 182.7 541 137 541C91.3 541 45.7 541 22.8 541L0 541Z" fill="#dc6186"></path>
  <path d="M0 490L22.8 488.7C45.7 487.3 91.3 484.7 137 486.5C182.7 488.3 228.3 494.7 274 495.2C319.7 495.7 365.3 490.3 411.2 485.8C457 481.3 503 477.7 548.8 477.7C594.7 477.7 640.3 481.3 686 483C731.7 484.7 777.3 484.3 823 482.8C868.7 481.3 914.3 478.7 937.2 477.3L960 476L960 541L937.2 541C914.3 541 868.7 541 823 541C777.3 541 731.7 541 686 541C640.3 541 594.7 541 548.8 541C503 541 457 541 411.2 541C365.3 541 319.7 541 274 541C228.3 541 182.7 541 137 541C91.3 541 45.7 541 22.8 541L0 541Z" fill="#c62368"></path>
</svg>